<?xml version="1.0" encoding="UTF-8"?>
<svg xmlns="http://www.w3.org/2000/svg" width="24" height="24" viewBox="0 0 24 24" fill="none">
  <path d="M17.32 9.36L19.31 11.35C19.5 11.54 19.5 11.85 19.31 12.04L12.7 18.65C12.51 18.84 12.2 18.84 12.01 18.65L8.99 15.63C8.9 15.54 8.75 15.54 8.66 15.63L5.69 18.6C5.5 18.79 5.19 18.79 5 18.6L3.01 16.61C2.82 16.42 2.82 16.11 3.01 15.92L9.62 9.31C9.81 9.12 10.12 9.12 10.31 9.31L13.33 12.33C13.42 12.42 13.57 12.42 13.66 12.33L16.63 9.36C16.82 9.17 17.13 9.17 17.32 9.36ZM21 11.35C21 11.04 20.88 10.74 20.66 10.52L17.32 7.18C16.87 6.73 16.12 6.73 15.67 7.18L13.66 9.19C13.57 9.28 13.42 9.28 13.33 9.19L10.31 6.17C9.86 5.72 9.12 5.72 8.67 6.17L3 11.82C2.78 12.04 2.66 12.35 2.66 12.65C2.66 12.96 2.78 13.26 3 13.48L5 15.46C5.44 15.9 6.19 15.9 6.64 15.46L9.61 12.49C9.71 12.4 9.85 12.4 9.94 12.49L12.96 15.51C13.18 15.73 13.49 15.85 13.8 15.85C14.1 15.85 14.41 15.73 14.63 15.51L20.66 9.48C20.88 9.26 21 8.95 21 8.65V11.35Z" fill="white"/>
</svg>
