<svg xmlns="http://www.w3.org/2000/svg" xmlns:xlink="http://www.w3.org/1999/xlink" xmlns:inkscape="http://www.inkscape.org/namespaces/inkscape" version="1.1" width="189.48001" height="166.51999" viewBox="0 0 189.48001 166.51999">
<defs>
<clipPath id="clip_0">
<path transform="matrix(.24,0,0,.24,-93.16,-57.609987)" d="M0 0H1562.5V1562.5H0Z" clip-rule="evenodd"/>
</clipPath>
<clipPath id="clip_1">
<path transform="matrix(.24,0,0,.24,-93.16,-57.609987)" d="M0 0H1562.5V1562.5H0Z" clip-rule="evenodd"/>
</clipPath>
<clipPath id="clip_2">
<path transform="matrix(.24,0,0,.24,-93.16,-57.609987)" d="M557.2592 272.114H1004.13418V897.114H557.2592Z" clip-rule="evenodd"/>
</clipPath>
<clipPath id="clip_3">
<path transform="matrix(.24,0,0,.24,-93.16,-57.609987)" d="M0 0H1562.5V1562.5H0Z" clip-rule="evenodd"/>
</clipPath>
<clipPath id="clip_4">
<path transform="matrix(1,0,0,-1,-93.16,325.43)" d="M93.16 158.91H282.64V325.43H93.16Z"/>
</clipPath>
</defs>
<g clip-path="url(#clip_0)">
<path transform="matrix(.75,0,0,.75,-93.16,-57.609987)" d="M0 0H500V500H0Z" fill="#ffffff"/>
</g>
<g clip-path="url(#clip_1)">
<path transform="matrix(.75,0,0,.75,-93.16,-57.609987)" d="M0 0H500V500H0Z" fill="#ffffff"/>
</g>
<g clip-path="url(#clip_2)">
<path transform="matrix(-.39620928,0,0,-.3952569,147.81432,157.69738)" d="M40.76 366.56C44.109998 361.44 110.020008 267.46 115.64 259.49 121.25 251.51999 127.65 242.45999 134.84 232.31999 142.03 222.18 149.45999 211.73999 157.14 201.01 164.81999 190.28 172.45 179.7 180.03 169.26 187.61 158.82999 194.5 149.28 200.70999 140.61 206.90999 131.95 212.23 124.61 216.65999 118.6 221.08998 112.6 223.99999 108.61 225.37 106.64 226.12999 105.26 227.26999 104.57 228.79 104.57 230.31 104.57 231.45 105.159999 232.20999 106.34 232.96999 107.52 233.34999 108.799999 233.34999 110.17999V286.21998C233.34999 287.39997 232.87 288.43998 231.92 289.31999 230.97 290.21 229.92 290.64997 228.77 290.64997 227.63 290.64997 226.58 290.25996 225.62001 289.46998 224.67002 288.68998 224.19002 287.59999 224.19002 286.21998V123.76L44.01 377.78C43.23 378.96 42.039999 379.55 40.469999 379.55 39.289999 379.55 38.21 379.11 37.219999 378.22 36.239999 377.33 35.739999 376.3 35.739999 375.12 35.74 374.53 37.42 371.68 40.76 366.56ZM1.62 57.01C2.7 56.23 3.8400002 55.829999 5.02 55.829999 6.4 55.829999 7.48 56.42 8.27 57.6L116.380008 209.42002 262.59 2.07C263.35 .68999996 264.58 0 266.29 0 267.62 0 268.67 .44 269.42 1.33 270.18003 2.22 270.56004 3.25 270.56004 4.43 270.56004 5.6099998 270.26005 6.6 269.67 7.38L69.41 290.35C68.630008 291.53 67.44 292.12 65.87 292.12 64.69 292.12 63.610006 291.68 62.620004 290.79 61.640005 289.9 61.140005 288.77003 61.140005 287.39 61.140005 286.61003 62.280004 284.54 64.54 281.19 66.81 277.84 69.61 273.76 72.96 268.93 76.31 264.11 80.05 258.99 84.19 253.56999 88.33 248.15999 92.22 242.93999 95.86 237.92 99.51 232.9 102.7 228.52 105.46 224.77 108.22 221.03 109.99 218.47 110.78 217.09001L8.86 74.43V287.69C8.86 288.87 8.469999 289.91 7.6799995 290.79 6.8999998 291.68003 5.9099996 292.12 4.7299997 292.12 3.5499995 292.12 2.5099996 291.68 1.6299996 290.79 .73999968 289.9 .2999996 288.87 .2999996 287.69V61.73C.1 61.54 0 60.95 0 59.96 0 58.78 .54 57.8 1.62 57.01Z"/>
</g>
<g clip-path="url(#clip_3)">
<text xml:space="preserve" transform="matrix(.75 0 0 .75 -30.401837 167.30745)" font-size="23.14" font-family="OpenSans"><tspan y="25" x=".265625 30.550324 52.33252 76.20364 97.81647 119.48575 142.69068 158.08188 184.42584 210.17136 225.1109 254.84232 276.6245 302.33616 317.72737">WEBSTRING MEDIA</tspan></text>
<text xml:space="preserve" transform="matrix(.3969216 0 0 .3969216 3.547226 206.14115)" font-size="21.33" font-family="CanvaSans"><tspan y="22" x="13.5625 26.611405 35.35927 44.2321 56.114625 64.86249 77.1095 88.87746 94.57399 106.414859 111.642749 131.52332 143.77033 157.47531 162.7032 175.7521 188.93639 195.18486 208.23377 216.98163 222.67816 235.86244 249.08838 259.7108 265.36567 270.59358 283.028 294.91053 308.13648 319.90443 325.60096 339.30598 345.55445 357.80146 363.02934 377.13008 389.37709 399.99946 413.04838 419.29685 428.0447">Strategic Web Solutions, Tangible Results</tspan></text>
<text xml:space="preserve" transform="matrix(.3969216 0 0 .3969216 3.547226 206.14115)" font-size="21.33" font-family="CanvaSans"><tspan y="22" x="438.67189"> </tspan></text>
</g>
<path transform="matrix(1,0,0,-1,-93.16,325.43)" d="M134 167.73262H241V317.7326H134Z" fill-opacity="0"/>
<g clip-path="url(#clip_4)">
<g>
<path transform="matrix(1,0,0,-1,-93.16,325.43)" d="M93.66 159.41H282.14V324.93H93.66Z" fill="#ffffff" fill-opacity=".1" fill-rule="evenodd"/>
<path transform="matrix(1,0,0,-1,-93.16,325.43)" stroke-width="1" stroke-linecap="butt" stroke-miterlimit="10" stroke-linejoin="miter" fill="none" stroke="#00a5e4" stroke-opacity=".1" d="M93.66 159.41H282.14V324.93H93.66Z"/>
</g>
</g>
</svg>
